<?xml version="1.0" encoding="UTF-8"?>
<svg xmlns="http://www.w3.org/2000/svg" xmlns:xlink="http://www.w3.org/1999/xlink" width="28px" height="28px" viewBox="0 0 28 28" version="1.1">
<g id="surface1">
<path style="stroke:none;fill-rule:nonzero;fill:rgb(100%,100%,100%);fill-opacity:1;" d="M 13.085938 0.0234375 C 13.023438 0.0273438 12.832031 0.046875 12.660156 0.0585938 C 8.6875 0.417969 4.964844 2.5625 2.609375 5.855469 C 1.296875 7.6875 0.457031 9.765625 0.140625 11.96875 C 0.0273438 12.734375 0.015625 12.960938 0.015625 14.003906 C 0.015625 15.046875 0.0273438 15.273438 0.140625 16.039062 C 0.902344 21.292969 4.636719 25.707031 9.707031 27.339844 C 10.613281 27.632812 11.570312 27.832031 12.660156 27.953125 C 13.085938 28 14.914062 28 15.339844 27.953125 C 17.21875 27.746094 18.808594 27.28125 20.378906 26.480469 C 20.621094 26.355469 20.664062 26.324219 20.632812 26.296875 C 20.609375 26.28125 19.585938 24.90625 18.355469 23.242188 L 16.117188 20.222656 L 13.316406 16.074219 C 11.773438 13.792969 10.503906 11.929688 10.496094 11.929688 C 10.484375 11.925781 10.472656 13.769531 10.46875 16.019531 C 10.460938 19.960938 10.457031 20.117188 10.40625 20.210938 C 10.335938 20.34375 10.28125 20.398438 10.167969 20.460938 C 10.078125 20.503906 10.003906 20.511719 9.589844 20.511719 L 9.117188 20.511719 L 8.992188 20.433594 C 8.910156 20.378906 8.847656 20.3125 8.808594 20.230469 L 8.75 20.109375 L 8.757812 14.628906 L 8.765625 9.144531 L 8.847656 9.035156 C 8.894531 8.980469 8.984375 8.90625 9.050781 8.871094 C 9.164062 8.816406 9.207031 8.808594 9.679688 8.808594 C 10.238281 8.808594 10.332031 8.832031 10.476562 8.988281 C 10.515625 9.035156 12.035156 11.320312 13.851562 14.074219 C 15.664062 16.824219 18.148438 20.585938 19.367188 22.429688 L 21.582031 25.785156 L 21.695312 25.710938 C 22.6875 25.066406 23.734375 24.148438 24.566406 23.191406 C 26.335938 21.160156 27.476562 18.683594 27.859375 16.039062 C 27.972656 15.273438 27.984375 15.046875 27.984375 14.003906 C 27.984375 12.960938 27.972656 12.734375 27.859375 11.96875 C 27.097656 6.714844 23.363281 2.300781 18.292969 0.667969 C 17.398438 0.378906 16.445312 0.175781 15.378906 0.0585938 C 15.117188 0.03125 13.3125 0 13.085938 0.0234375 Z M 18.808594 8.480469 C 18.941406 8.546875 19.046875 8.671875 19.085938 8.804688 C 19.105469 8.875 19.113281 10.394531 19.105469 13.820312 L 19.097656 18.738281 L 18.230469 17.40625 L 17.363281 16.078125 L 17.363281 12.503906 C 17.363281 10.195312 17.375 8.898438 17.390625 8.832031 C 17.433594 8.679688 17.53125 8.558594 17.660156 8.488281 C 17.773438 8.433594 17.8125 8.425781 18.242188 8.425781 C 18.648438 8.425781 18.71875 8.433594 18.808594 8.480469 Z M 18.808594 8.480469 "/>
<path style="stroke:none;fill-rule:nonzero;fill:rgb(100%,100%,100%);fill-opacity:1;" d="M 21.445312 25.84375 C 21.347656 25.90625 21.320312 25.945312 21.402344 25.898438 C 21.464844 25.863281 21.5625 25.789062 21.546875 25.789062 C 21.539062 25.789062 21.492188 25.816406 21.445312 25.84375 Z M 21.257812 25.96875 C 21.207031 26.007812 21.207031 26.007812 21.265625 25.980469 C 21.300781 25.964844 21.328125 25.945312 21.328125 25.9375 C 21.328125 25.917969 21.3125 25.921875 21.257812 25.96875 Z M 21.121094 26.050781 C 21.070312 26.089844 21.070312 26.089844 21.128906 26.0625 C 21.164062 26.046875 21.191406 26.027344 21.191406 26.019531 C 21.191406 26 21.175781 26.003906 21.121094 26.050781 Z M 20.984375 26.132812 C 20.933594 26.171875 20.933594 26.171875 20.992188 26.144531 C 21.027344 26.128906 21.054688 26.109375 21.054688 26.101562 C 21.054688 26.082031 21.039062 26.085938 20.984375 26.132812 Z M 20.773438 26.242188 C 20.671875 26.296875 20.675781 26.320312 20.78125 26.265625 C 20.828125 26.242188 20.863281 26.21875 20.863281 26.210938 C 20.863281 26.191406 20.859375 26.195312 20.773438 26.242188 Z M 20.773438 26.242188 "/>
</g>
</svg>
