<?xml version="1.0" encoding="UTF-8"?>
<svg xmlns="http://www.w3.org/2000/svg" xmlns:xlink="http://www.w3.org/1999/xlink" width="28px" height="34px" viewBox="0 0 28 34" version="1.1">
<g id="surface1">
<path style=" stroke:none;fill-rule:evenodd;fill:rgb(100%,100%,100%);fill-opacity:1;" d="M 27.535156 25.871094 L 15.90625 1.3125 C 15.609375 0.695312 15 0.289062 14.316406 0.253906 C 13.628906 0.210938 12.972656 0.546875 12.617188 1.132812 L 0 21.445312 C -0.390625 22.074219 -0.382812 22.867188 0.0195312 23.488281 L 6.1875 32.984375 C 6.667969 33.714844 7.574219 34.046875 8.417969 33.796875 L 26.316406 28.535156 C 26.859375 28.375 27.3125 27.988281 27.546875 27.476562 C 27.78125 26.964844 27.777344 26.378906 27.535156 25.871094 Z M 24.933594 26.925781 L 9.742188 31.390625 C 9.28125 31.527344 8.835938 31.128906 8.933594 30.664062 L 14.359375 4.828125 C 14.460938 4.347656 15.132812 4.269531 15.34375 4.714844 L 25.386719 25.925781 C 25.476562 26.117188 25.480469 26.339844 25.390625 26.53125 C 25.304688 26.722656 25.136719 26.867188 24.929688 26.925781 Z M 24.933594 26.925781 "/>
</g>
</svg>