<?xml version="1.0" encoding="UTF-8"?>
<svg xmlns="http://www.w3.org/2000/svg" xmlns:xlink="http://www.w3.org/1999/xlink" width="28px" height="29px" viewBox="0 0 28 28" version="1.1">
<g id="surface1">
<path style=" stroke:none;fill-rule:nonzero;fill:rgb(0%,0%,0%);fill-opacity:1;" d="M 27.890625 16.765625 C 27.722656 16.273438 27.285156 15.929688 26.714844 15.847656 C 26.445312 15.808594 26.140625 15.824219 25.777344 15.898438 C 25.144531 16.023438 24.671875 16.070312 24.328125 16.082031 C 25.625 13.960938 26.675781 11.542969 27.285156 9.269531 C 28.261719 5.589844 27.738281 3.914062 27.128906 3.15625 C 25.507812 1.148438 23.144531 0.0742188 20.292969 0.0390625 C 18.773438 0.0195312 17.4375 0.3125 16.742188 0.523438 C 16.09375 0.410156 15.398438 0.347656 14.664062 0.335938 C 13.292969 0.316406 12.082031 0.605469 11.046875 1.203125 C 10.476562 1.015625 9.554688 0.75 8.492188 0.578125 C 5.996094 0.183594 3.980469 0.492188 2.507812 1.5 C 0.722656 2.722656 -0.101562 4.84375 0.0507812 7.808594 C 0.0976562 8.75 0.640625 11.613281 1.496094 14.328125 C 1.988281 15.890625 2.511719 17.1875 3.054688 18.179688 C 3.824219 19.59375 4.644531 20.425781 5.566406 20.722656 C 6.085938 20.890625 7.027344 21.007812 8.015625 20.210938 C 8.140625 20.355469 8.308594 20.503906 8.527344 20.640625 C 8.8125 20.8125 9.15625 20.953125 9.5 21.035156 C 10.742188 21.335938 11.902344 21.261719 12.894531 20.839844 C 12.898438 21.011719 12.902344 21.171875 12.910156 21.316406 C 12.914062 21.542969 12.921875 21.769531 12.929688 21.976562 C 12.988281 23.394531 13.089844 24.5 13.382812 25.269531 C 13.398438 25.3125 13.421875 25.378906 13.445312 25.445312 C 13.589844 25.882812 13.835938 26.613281 14.464844 27.1875 C 15.109375 27.78125 15.894531 27.960938 16.613281 27.960938 C 16.972656 27.960938 17.316406 27.914062 17.617188 27.851562 C 18.691406 27.628906 19.910156 27.289062 20.792969 26.070312 C 21.628906 24.917969 22.035156 23.183594 22.105469 20.453125 C 22.117188 20.375 22.125 20.300781 22.132812 20.230469 L 22.152344 20.085938 L 22.347656 20.101562 L 22.398438 20.105469 C 23.492188 20.15625 24.832031 19.929688 25.652344 19.558594 C 26.300781 19.265625 28.382812 18.203125 27.890625 16.765625 "/>
<path style=" stroke:none;fill-rule:nonzero;fill:rgb(20%,40.392157%,56.862745%);fill-opacity:1;" d="M 26.019531 17.042969 C 22.769531 17.695312 22.542969 16.628906 22.542969 16.628906 C 25.980469 11.6875 27.414062 5.414062 26.175781 3.878906 C 22.796875 -0.308594 16.945312 1.671875 16.847656 1.722656 L 16.816406 1.730469 C 16.171875 1.597656 15.453125 1.523438 14.644531 1.507812 C 13.171875 1.484375 12.058594 1.882812 11.210938 2.507812 C 11.210938 2.507812 0.773438 -1.664062 1.257812 7.75 C 1.359375 9.753906 4.21875 22.902344 7.625 18.929688 C 8.871094 17.476562 10.074219 16.25 10.074219 16.25 C 10.671875 16.636719 11.386719 16.832031 12.136719 16.761719 L 12.195312 16.710938 C 12.175781 16.894531 12.1875 17.070312 12.21875 17.277344 C 11.339844 18.230469 11.597656 18.394531 9.84375 18.746094 C 8.070312 19.101562 9.113281 19.734375 9.792969 19.898438 C 10.617188 20.097656 12.527344 20.382812 13.820312 18.628906 L 13.769531 18.828125 C 14.113281 19.097656 14.351562 20.566406 14.3125 21.898438 C 14.273438 23.234375 14.246094 24.148438 14.515625 24.863281 C 14.789062 25.578125 15.058594 27.1875 17.363281 26.707031 C 19.292969 26.304688 20.289062 25.269531 20.429688 23.535156 C 20.527344 22.304688 20.75 22.488281 20.765625 21.386719 L 20.945312 20.867188 C 21.152344 19.199219 20.976562 18.660156 22.164062 18.910156 L 22.453125 18.933594 C 23.328125 18.972656 24.472656 18.796875 25.144531 18.496094 C 26.589844 17.84375 27.445312 16.757812 26.019531 17.042969 "/>
<path style=" stroke:none;fill-rule:nonzero;fill:rgb(100%,100%,100%);fill-opacity:1;" d="M 11.820312 8.644531 C 11.527344 8.605469 11.261719 8.644531 11.128906 8.742188 C 11.050781 8.796875 11.027344 8.859375 11.023438 8.90625 C 11.007812 9.023438 11.089844 9.152344 11.140625 9.21875 C 11.289062 9.40625 11.503906 9.539062 11.71875 9.566406 C 11.75 9.570312 11.777344 9.574219 11.808594 9.574219 C 12.164062 9.574219 12.488281 9.304688 12.515625 9.105469 C 12.550781 8.859375 12.179688 8.695312 11.820312 8.644531 M 21.53125 8.652344 C 21.503906 8.460938 21.148438 8.402344 20.808594 8.449219 C 20.472656 8.496094 20.144531 8.644531 20.171875 8.835938 C 20.191406 8.988281 20.476562 9.246094 20.808594 9.246094 C 20.835938 9.246094 20.863281 9.246094 20.894531 9.242188 C 21.117188 9.210938 21.28125 9.074219 21.359375 8.996094 C 21.476562 8.875 21.542969 8.742188 21.53125 8.652344 "/>
<path style=" stroke:none;fill-rule:nonzero;fill:rgb(100%,100%,100%);fill-opacity:1;" d="M 27.101562 16.96875 C 26.980469 16.605469 26.582031 16.488281 25.917969 16.621094 C 23.949219 17.015625 23.242188 16.742188 23.011719 16.578125 C 24.542969 14.316406 25.800781 11.585938 26.480469 9.035156 C 26.800781 7.828125 26.980469 6.703125 26.992188 5.789062 C 27.011719 4.785156 26.832031 4.050781 26.46875 3.597656 C 25.003906 1.78125 22.851562 0.808594 20.25 0.78125 C 18.457031 0.761719 16.945312 1.207031 16.652344 1.332031 C 16.035156 1.183594 15.363281 1.089844 14.628906 1.078125 C 13.285156 1.058594 12.125 1.371094 11.160156 2.007812 C 10.742188 1.855469 9.664062 1.496094 8.34375 1.289062 C 6.058594 0.933594 4.246094 1.203125 2.953125 2.09375 C 1.40625 3.152344 0.695312 5.050781 0.832031 7.730469 C 0.878906 8.632812 1.410156 11.40625 2.246094 14.0625 C 3.34375 17.558594 4.542969 19.535156 5.800781 19.945312 C 5.945312 19.992188 6.117188 20.023438 6.304688 20.023438 C 6.761719 20.023438 7.328125 19.824219 7.914062 19.140625 C 8.625 18.308594 9.367188 17.5 10.128906 16.710938 C 10.625 16.96875 11.167969 17.109375 11.722656 17.125 C 11.722656 17.140625 11.726562 17.152344 11.726562 17.167969 C 11.628906 17.277344 11.539062 17.390625 11.445312 17.503906 C 11.058594 17.976562 10.980469 18.078125 9.738281 18.324219 C 9.386719 18.394531 8.449219 18.582031 8.4375 19.21875 C 8.421875 19.914062 9.542969 20.207031 9.671875 20.238281 C 10.117188 20.347656 10.546875 20.398438 10.957031 20.398438 C 11.953125 20.398438 12.828125 20.082031 13.527344 19.46875 C 13.507812 21.949219 13.613281 24.390625 13.921875 25.136719 C 14.171875 25.746094 14.785156 27.234375 16.726562 27.234375 C 17.011719 27.234375 17.324219 27.203125 17.671875 27.132812 C 19.695312 26.710938 20.574219 25.84375 20.917969 23.929688 C 21.097656 22.90625 21.410156 20.464844 21.558594 19.152344 C 21.867188 19.246094 22.265625 19.289062 22.699219 19.289062 C 23.601562 19.289062 24.636719 19.105469 25.289062 18.8125 C 26.023438 18.480469 27.34375 17.671875 27.101562 16.96875 Z M 22.277344 8.117188 C 22.273438 8.503906 22.21875 8.855469 22.160156 9.222656 C 22.097656 9.617188 22.03125 10.023438 22.015625 10.519531 C 22 11 22.0625 11.5 22.121094 11.984375 C 22.242188 12.960938 22.367188 13.96875 21.886719 14.960938 C 21.804688 14.824219 21.734375 14.683594 21.671875 14.539062 C 21.613281 14.398438 21.484375 14.171875 21.304688 13.859375 C 20.601562 12.640625 18.964844 9.789062 19.804688 8.628906 C 20.054688 8.28125 20.6875 7.925781 22.277344 8.117188 Z M 20.347656 1.566406 C 22.683594 1.613281 24.527344 2.460938 25.835938 4.082031 C 26.835938 5.324219 25.734375 10.972656 22.539062 15.847656 C 22.507812 15.808594 22.472656 15.769531 22.441406 15.730469 L 22.402344 15.679688 C 23.226562 14.359375 23.066406 13.050781 22.921875 11.890625 C 22.863281 11.414062 22.808594 10.964844 22.820312 10.542969 C 22.835938 10.097656 22.898438 9.710938 22.957031 9.339844 C 23.027344 8.882812 23.101562 8.410156 23.082031 7.851562 C 23.097656 7.792969 23.101562 7.726562 23.09375 7.644531 C 23.042969 7.109375 22.414062 5.507812 21.128906 4.058594 C 20.425781 3.265625 19.402344 2.378906 18.003906 1.777344 C 18.605469 1.65625 19.429688 1.546875 20.347656 1.566406 Z M 7.292969 18.640625 C 6.648438 19.394531 6.203125 19.25 6.054688 19.203125 C 5.101562 18.894531 3.992188 16.9375 3.015625 13.832031 C 2.171875 11.148438 1.675781 8.449219 1.636719 7.691406 C 1.511719 5.296875 2.113281 3.628906 3.417969 2.730469 C 5.539062 1.273438 9.027344 2.144531 10.429688 2.589844 C 10.410156 2.609375 10.390625 2.625 10.367188 2.644531 C 8.066406 4.898438 8.121094 8.746094 8.128906 8.984375 C 8.128906 9.074219 8.136719 9.203125 8.148438 9.378906 C 8.1875 10.027344 8.261719 11.230469 8.0625 12.597656 C 7.878906 13.863281 8.285156 15.105469 9.167969 16 C 9.261719 16.09375 9.355469 16.179688 9.457031 16.261719 C 9.0625 16.671875 8.203125 17.578125 7.292969 18.640625 Z M 9.75 15.460938 C 9.039062 14.738281 8.714844 13.734375 8.863281 12.703125 C 9.070312 11.261719 8.992188 10.007812 8.953125 9.332031 C 8.945312 9.238281 8.941406 9.15625 8.9375 9.089844 C 9.273438 8.800781 10.832031 7.992188 11.941406 8.238281 C 12.449219 8.351562 12.757812 8.6875 12.886719 9.261719 C 13.550781 12.242188 12.972656 13.484375 12.511719 14.484375 C 12.414062 14.6875 12.324219 14.882812 12.25 15.082031 L 12.1875 15.238281 C 12.039062 15.632812 11.898438 15.996094 11.808594 16.34375 C 11.050781 16.34375 10.3125 16.027344 9.75 15.460938 Z M 9.867188 19.480469 C 9.644531 19.425781 9.445312 19.332031 9.328125 19.253906 C 9.425781 19.210938 9.601562 19.152344 9.902344 19.089844 C 11.363281 18.800781 11.585938 18.59375 12.078125 17.988281 C 12.191406 17.847656 12.320312 17.691406 12.496094 17.5 C 12.761719 17.214844 12.882812 17.261719 13.101562 17.351562 C 13.277344 17.421875 13.449219 17.636719 13.519531 17.875 C 13.554688 17.984375 13.589844 18.199219 13.46875 18.363281 C 12.441406 19.757812 10.941406 19.742188 9.867188 19.480469 Z M 17.5 26.367188 C 15.71875 26.738281 15.085938 25.855469 14.667969 24.847656 C 14.398438 24.195312 14.269531 21.257812 14.363281 18.011719 C 14.363281 17.96875 14.355469 17.925781 14.34375 17.886719 C 14.332031 17.808594 14.316406 17.734375 14.292969 17.660156 C 14.15625 17.1875 13.816406 16.792969 13.410156 16.628906 C 13.246094 16.5625 12.949219 16.445312 12.59375 16.53125 C 12.667969 16.226562 12.800781 15.882812 12.945312 15.511719 L 13.003906 15.355469 C 13.070312 15.179688 13.15625 14.996094 13.246094 14.804688 C 13.730469 13.757812 14.394531 12.328125 13.675781 9.097656 C 13.402344 7.886719 12.503906 7.296875 11.136719 7.433594 C 10.316406 7.515625 9.566406 7.835938 9.195312 8.019531 C 9.113281 8.058594 9.039062 8.097656 8.972656 8.132812 C 9.074219 6.914062 9.46875 4.636719 10.945312 3.191406 C 11.871094 2.285156 13.109375 1.835938 14.617188 1.859375 C 17.585938 1.90625 19.488281 3.386719 20.5625 4.617188 C 21.488281 5.675781 21.988281 6.746094 22.1875 7.320312 C 20.683594 7.171875 19.660156 7.460938 19.144531 8.179688 C 18.015625 9.742188 19.761719 12.78125 20.597656 14.238281 C 20.753906 14.507812 20.886719 14.738281 20.925781 14.835938 C 21.199219 15.476562 21.554688 15.90625 21.8125 16.21875 C 21.890625 16.316406 21.96875 16.40625 22.027344 16.488281 C 21.570312 16.617188 20.753906 16.910156 20.828125 18.382812 C 20.765625 19.121094 20.339844 22.574219 20.121094 23.796875 C 19.835938 25.410156 19.222656 26.011719 17.5 26.367188 Z M 24.949219 18.101562 C 24.484375 18.3125 23.703125 18.46875 22.964844 18.503906 C 22.144531 18.539062 21.730469 18.414062 21.632812 18.335938 C 21.585938 17.421875 21.9375 17.324219 22.308594 17.222656 C 22.367188 17.207031 22.425781 17.191406 22.480469 17.171875 C 22.515625 17.199219 22.550781 17.226562 22.59375 17.253906 C 23.25 17.675781 24.425781 17.71875 26.078125 17.386719 L 26.097656 17.382812 C 25.875 17.585938 25.492188 17.859375 24.949219 18.101562 Z M 24.949219 18.101562 "/>
</g>
</svg>
