<?xml version="1.0" encoding="UTF-8"?>
<svg xmlns="http://www.w3.org/2000/svg" xmlns:xlink="http://www.w3.org/1999/xlink" width="30px" height="18px" viewBox="0 0 30 18" version="1.1">
<g id="surface1">
<path style=" stroke:none;fill-rule:nonzero;fill:rgb(2.352941%,71.372549%,83.137255%);fill-opacity:1;" d="M 15 0 C 11 0 8.503906 2 7.503906 6 C 9.003906 4 10.75 3.25 12.75 3.75 C 13.890625 4.035156 14.707031 4.863281 15.609375 5.78125 C 17.078125 7.273438 18.78125 9 22.496094 9 C 26.496094 9 28.996094 7 29.992188 3 C 28.496094 5 26.746094 5.75 24.746094 5.25 C 23.605469 4.964844 22.789062 4.136719 21.886719 3.21875 C 20.417969 1.726562 18.714844 0 15 0 Z M 7.503906 9 C 3.503906 9 1.003906 11 0.0078125 15 C 1.503906 13 3.253906 12.25 5.253906 12.75 C 6.394531 13.035156 7.210938 13.863281 8.113281 14.777344 C 9.582031 16.273438 11.285156 18 15 18 C 19 18 21.496094 16 22.496094 12 C 20.996094 14 19.25 14.75 17.25 14.25 C 16.109375 13.964844 15.292969 13.136719 14.390625 12.21875 C 12.921875 10.726562 11.21875 9 7.503906 9 Z M 7.503906 9 "/>
</g>
</svg>
