<?xml version="1.0" encoding="UTF-8"?>
<svg xmlns="http://www.w3.org/2000/svg" xmlns:xlink="http://www.w3.org/1999/xlink" width="28px" height="28px" viewBox="0 0 28 28" version="1.1">
<g id="surface1">
<path style=" stroke:none;fill-rule:nonzero;fill:rgb(0%,47.843137%,80%);fill-opacity:1;" d="M 0 14 L 0 0 L 28 0 L 28 28 L 0 28 "/>
<path style=" stroke:none;fill-rule:nonzero;fill:rgb(100%,100%,100%);fill-opacity:1;" d="M 6.140625 14.050781 L 6.140625 15.191406 L 9.777344 15.191406 L 9.777344 25.550781 L 12.363281 25.550781 L 12.363281 15.191406 L 16.003906 15.191406 L 16.003906 14.070312 C 16.003906 13.441406 16.003906 12.929688 15.972656 12.914062 C 15.972656 12.894531 13.753906 12.886719 11.058594 12.886719 L 6.160156 12.90625 L 6.160156 14.054688 Z M 22.496094 12.878906 C 23.210938 13.046875 23.757812 13.371094 24.246094 13.882812 C 24.507812 14.160156 24.890625 14.652344 24.921875 14.777344 C 24.921875 14.820312 23.710938 15.636719 22.972656 16.09375 C 22.945312 16.113281 22.835938 15.996094 22.722656 15.8125 C 22.359375 15.296875 21.988281 15.070312 21.40625 15.027344 C 20.566406 14.972656 20.007812 15.414062 20.007812 16.148438 C 20.007812 16.371094 20.046875 16.5 20.132812 16.679688 C 20.320312 17.066406 20.671875 17.296875 21.757812 17.773438 C 23.757812 18.632812 24.625 19.199219 25.152344 20.011719 C 25.746094 20.921875 25.878906 22.351562 25.480469 23.421875 C 25.03125 24.589844 23.941406 25.382812 22.378906 25.640625 C 21.890625 25.726562 20.769531 25.710938 20.242188 25.621094 C 19.125 25.410156 18.054688 24.851562 17.394531 24.128906 C 17.136719 23.847656 16.640625 23.101562 16.667969 23.050781 L 16.933594 22.882812 L 17.984375 22.273438 L 18.773438 21.8125 L 18.957031 22.058594 C 19.1875 22.421875 19.703125 22.910156 20.007812 23.078125 C 20.914062 23.546875 22.132812 23.484375 22.734375 22.9375 C 22.996094 22.699219 23.105469 22.449219 23.105469 22.097656 C 23.105469 21.777344 23.058594 21.628906 22.898438 21.386719 C 22.671875 21.078125 22.226562 20.824219 20.964844 20.265625 C 19.515625 19.648438 18.898438 19.257812 18.324219 18.65625 C 17.996094 18.289062 17.695312 17.722656 17.554688 17.253906 C 17.449219 16.847656 17.414062 15.855469 17.515625 15.457031 C 17.816406 14.054688 18.871094 13.074219 20.382812 12.796875 C 20.875 12.699219 22.027344 12.738281 22.511719 12.867188 Z M 22.496094 12.878906 "/>
</g>
</svg>
